<svg width="432" height="472" viewBox="0 0 432 472" fill="none" xmlns="http://www.w3.org/2000/svg">
<g clip-path="url(#clip0_55_162)">
<path d="M203.21 8.35997C151.32 49.8 127.41 122.16 128.99 187.56C93.1899 183.03 67.7599 200.52 56.0599 233.67C30.6899 305.57 97.7599 389.48 149.09 433.36C131.09 424.36 114.36 411.24 102.06 397.5C58.2699 348.54 3.3599 251.76 63.5899 195.11C79.5099 180.14 95.3499 178.96 115.82 176.92C119.87 112.85 141.99 39.11 203.22 8.34998L203.21 8.35997Z" fill="#9333EA"/>
<path d="M318.02 138.37C311.73 94.56 287.54 31.16 248.54 17.16C241.57 14.66 238.49 13.35 225 16.72C194.51 24.33 170.7 66.41 159.89 93.66C152.88 111.32 134.82 178.29 144.52 192.65C145.51 194.11 168.88 205.44 175.01 210.35C190.67 222.89 219.04 255.01 221.76 275.19C224.66 296.74 217.05 314.08 192.82 311.87C156.66 308.56 130.87 237.1 130.52 205.38C103.78 198.31 84.3899 212.11 74.4399 236.49C53.6299 287.48 87.6499 346 120.61 383.98C128.51 393.08 160.56 431.16 177.56 438.16C194.56 445.16 201.56 445.16 208.56 445.16C215.56 445.16 232.56 445.16 240.56 437.16C248.56 429.16 260.95 402.78 269.72 388.64C318.03 310.82 331.03 228.9 318.03 138.36L318.02 138.37Z" fill="#9333EA"/>
<path d="M195.15 294.74C198.88 295.57 202.63 293.38 203.74 289.72L203.76 289.65C210.18 268.04 168.45 217.81 145.89 212.87C154.96 240.17 162.76 287.52 195.14 294.75L195.15 294.74Z" fill="#9333EA"/>
<path d="M353.3 116.69L331.07 124.14C350.48 209.33 332.28 298.68 290.91 374.34L248.54 441.16C255.54 439.16 269.54 432.16 277.08 429C317.65 411.99 389.37 267.49 404.66 224.29C424.37 168.6 441.21 97.38 353.29 116.68L353.3 116.69Z" fill="#C084FC"/>
<path d="M328.54 116.45C321.46 64.3299 274.6 -18.3401 211.9 3.63994C207.55 5.16994 205.55 7.16994 201.7 9.91994C150.28 50.9799 126.59 122.68 128.15 187.49C92.68 183 67.4801 200.33 55.89 233.18C30.7501 304.42 95.04 387.51 145.9 430.99C148.5 433.21 154.77 437.64 160.42 441.52C168.16 446.85 177.37 451.13 186.55 453.17C195.73 455.21 212.06 457.23 225.55 455.17C253.34 450.93 260.44 448.21 278.11 440.36C291.5 434.41 303.37 425.48 312.71 414.19C355.3 362.65 390.98 301.02 414.13 238.84C445.52 154.55 444.98 70.7299 328.54 116.46V116.45ZM208.55 445.16C201.55 445.16 194.55 445.16 177.55 438.16C160.55 431.16 128.5 393.08 120.6 383.98C87.6501 346 53.6201 287.48 74.4301 236.49C84.3801 212.11 103.78 198.31 130.51 205.38C130.87 237.1 156.65 308.56 192.81 311.87C217.05 314.09 224.66 296.75 221.75 275.19C219.03 255.01 190.67 222.89 175 210.35C168.87 205.44 145.49 194.11 144.51 192.65C134.81 178.29 152.87 111.32 159.88 93.6599C170.69 66.4099 194.5 24.3299 224.99 16.7199C238.48 13.3499 241.56 14.6599 248.53 17.1599C287.53 31.1599 311.72 94.5499 318.01 138.37C331 228.91 318.01 310.82 269.7 388.65C260.93 402.79 248.54 429.17 240.54 437.17C232.54 445.17 215.54 445.17 208.54 445.17L208.55 445.16ZM145.9 212.86C168.46 217.8 210.19 268.04 203.77 289.64L203.75 289.71C202.64 293.37 198.89 295.57 195.16 294.73C162.78 287.5 154.97 240.15 145.91 212.85L145.9 212.86ZM404.67 224.3C389.38 267.49 317.66 411.99 277.09 429.01C269.55 432.17 255.55 439.17 248.55 441.17L290.92 374.35C332.29 298.69 350.49 209.34 331.08 124.15L353.31 116.7C441.23 97.3899 424.4 168.62 404.68 224.31L404.67 224.3Z" fill="#0F100C"/>
<path d="M269.71 388.65C260.94 402.79 248.55 429.17 240.55 437.17C233.45 444.27 219.26 445.07 211.26 445.15C217.36 444.15 223.57 442.15 227.55 438.17C235.55 430.17 247.94 403.79 256.71 389.65C305.02 311.83 318.02 229.91 305.02 139.37C298.74 95.56 274.55 32.17 235.55 18.17C232.8 17.18 230.65 16.38 228.23 15.97C239.04 13.59 242.17 14.88 248.55 17.17C287.55 31.17 311.74 94.56 318.02 138.37C331.02 228.91 318.02 310.83 269.71 388.65Z" fill="#F4F4F4"/>
</g>
<defs>
<clipPath id="clip0_55_162">
<rect width="431.77" height="471.02" fill="white"/>
</clipPath>
</defs>
</svg>
